<svg width="24" height="24" viewBox="0 0 24 24" fill="none" xmlns="http://www.w3.org/2000/svg">
<g clip-path="url(#clip0_3_53)">
<path d="M24 18C24 18.7072 23.719 19.3855 23.219 19.8856C22.7189 20.3857 22.0406 20.6667 21.3333 20.6667H2.66667C1.95942 20.6667 1.28115 20.3857 0.781049 19.8856C0.280952 19.3855 0 18.7072 0 18V15.3333H24V18Z" fill="#CE2028"/>
<path d="M0 8.66666H24V15.3333H0V8.66666Z" fill="#22408C"/>
<path d="M21.3333 3.33334H2.66667C1.95942 3.33334 1.28115 3.61429 0.781049 4.11438C0.280952 4.61448 0 5.29276 0 6L0 8.66667H24V6C24 5.29276 23.719 4.61448 23.219 4.11438C22.7189 3.61429 22.0406 3.33334 21.3333 3.33334Z" fill="#EEEEEE"/>
</g>
<defs>
<clipPath id="clip0_3_53">
<rect width="24" height="24" fill="white"/>
</clipPath>
</defs>
</svg>
